# File produced by Open Asset Import Library (http://www.assimp.sf.net)
# (assimp v5.0.1588609223)

mtllib result.mtl

# 8 vertex positions
v  0.050832905 0.12770641 0.39504755
v  -0.10118648 0.24123916 0.39504755
v  -0.055317622 0.12770641 0.39504755
v  0.097986676 0.24092396 0.39504755
v  -0.055317622 0.12770641 0.29504752
v  -0.10118648 0.24123916 0.29504752
v  0.050832905 0.12770641 0.29504752
v  0.097986676 0.24092396 0.29504752

# 0 UV coordinates

# 6 vertex normals
vn 0 0 0.099586584
vn 0 0 -0.099586584
vn -0.19409268 -0.025479248 0
vn 0.00055296207 0.11353231 0
vn 0.19378692 -0.026224537 0
vn 0 -0.11353274 0

# Mesh 'mesh_id174' with 12 faces
g mesh_id174
usemtl 174
f  1//1 2//1 3//1
f  1//1 4//1 2//1
f  5//2 6//2 7//2
f  6//2 8//2 7//2
f  3//3 6//3 5//3
f  3//3 2//3 6//3
f  2//4 8//4 6//4
f  2//4 4//4 8//4
f  4//5 7//5 8//5
f  4//5 1//5 7//5
f  1//6 5//6 7//6
f  1//6 3//6 5//6

